<svg width="512" height="512" viewBox="0 0 512 512" fill="none" xmlns="http://www.w3.org/2000/svg">
	<!-- <path d="M342 0H170C76.1116 0 0 76.1116 0 170V342C0 435.888 76.1116 512 170 512H342C435.888 512 512 435.888 512 342V170C512 76.1116 435.888 0 342 0Z" fill="#7C3AED" /> -->
	<path d="M258.337 389.986C265.668 406.694 279.33 420.006 296.478 427.15L300.735 428.919L296.478 430.693C279.33 437.836 265.668 451.148 258.337 467.857L256.522 472L254.701 467.857C247.37 451.147 233.708 437.836 216.56 430.693L212.308 428.919L216.56 427.15C233.708 420.006 247.37 406.694 254.701 389.986L256.522 385.842L258.337 389.986ZM163.676 40C187.451 50.0664 208.682 65.5154 227.362 86.3377C235.287 95.1626 243.068 105.713 250.71 117.985C258.352 130.12 265.149 144.184 271.093 160.179C277.037 176.037 281.846 193.966 285.525 213.96C287.867 226.771 289.459 240.531 290.31 255.24C294.355 248.582 299.036 241.328 304.377 233.491C310.875 224.162 318.151 214.62 326.203 204.873C334.256 195.126 342.808 186.218 351.849 178.142C361.031 170.206 370.495 163.66 380.242 158.508C390.131 153.356 400.023 150.779 409.912 150.779C417.823 150.779 426.934 151.684 437.245 153.494C447.558 155.304 459.144 158.787 472 163.939L468.819 173.333C464.724 171.664 460.909 170.619 457.378 170.202C453.988 169.784 451.302 169.574 449.324 169.574C445.227 169.575 440.492 170.971 435.125 173.755C429.898 176.679 424.246 180.648 418.172 185.66C412.098 190.812 405.813 196.801 399.315 203.623C392.958 210.446 386.599 217.825 380.242 225.762C373.885 233.698 367.81 241.982 362.018 250.616C356.226 259.249 350.929 267.885 346.126 276.518C358.557 279.303 370.707 283.062 382.574 287.796C394.581 292.669 405.246 298.796 414.57 306.175C424.034 313.555 431.594 322.397 437.245 332.7C443.037 343.004 445.933 355.052 445.933 368.837C445.932 374.066 445.515 379.05 444.7 383.792C423.501 376.65 400.134 370.676 375.102 366.105C374.84 357.069 373.451 348.928 370.917 341.685C368.232 333.608 364.63 326.434 360.109 320.168C355.588 313.903 350.435 308.471 344.644 303.877C338.852 299.282 332.916 295.313 326.842 291.972C316.022 286.107 304.083 281.635 291.027 278.547C291.032 279.49 291.043 280.436 291.043 281.386V328.016C291.043 343.042 297.139 355.71 327.053 355.71V364.018C327.053 364.018 299.578 359.864 258.842 359.864C218.106 359.864 187.789 364.018 187.789 364.018V355.71C204.363 355.71 222.578 348.288 223.699 329.833L223.754 328.016V277.914C209.609 281.01 196.746 285.694 185.164 291.972C179.089 295.313 173.154 299.282 167.362 303.877C161.57 308.471 156.412 313.902 151.891 320.168C147.37 326.434 143.768 333.608 141.083 341.685C138.549 348.928 137.159 357.069 136.898 366.105C111.864 370.676 88.4951 376.649 67.2942 383.792C66.4789 379.051 66.0676 374.066 66.0674 368.837C66.0674 355.052 68.9625 343.004 74.7547 332.7C80.4057 322.396 87.9651 313.555 97.4304 306.175C106.754 298.796 117.419 292.669 129.426 287.796C141.293 283.062 153.448 279.303 165.88 276.518C161.077 267.885 155.774 259.249 149.982 250.616C144.19 241.983 138.115 233.698 131.758 225.762C125.401 217.826 119.047 210.445 112.69 203.623C106.192 196.801 99.9025 190.812 93.8279 185.66C87.7535 180.648 82.1021 176.68 76.8752 173.755C71.5068 170.971 66.7727 169.574 62.6758 169.574C60.6986 169.574 58.0155 169.784 54.6268 170.202C51.0952 170.619 47.2774 171.663 43.1807 173.333L40 163.939C52.8556 158.787 64.4419 155.304 74.7547 153.494C85.0678 151.684 94.182 150.779 102.093 150.779C111.982 150.779 121.869 153.357 131.758 158.508C141.506 163.66 150.974 170.205 160.157 178.142C169.197 186.217 177.745 195.127 185.797 204.873C193.849 214.62 201.125 224.162 207.623 233.491C213.894 242.693 219.27 251.082 223.754 258.658V231.955C223.754 215.408 222.835 200.031 220.995 185.828C219.156 171.764 216.676 158.87 213.563 147.149C210.591 135.291 207.198 124.6 203.377 115.085C199.556 105.571 195.66 97.0887 191.697 89.6425C182.358 72.1307 171.744 57.8572 159.857 46.826L163.676 40Z" fill="white" />
</svg>
