<svg xmlns="http://www.w3.org/2000/svg" viewBox="0 0 512 512" width="512" height="512">
	<!-- Everything shifted up to center vertically -->
	<g transform="scale(1.25, 1.25) translate(-50, -50)">
		<!-- Chat bubble body -->
		<rect x="135" y="255" width="242" height="160" rx="44" fill="#FAFAFA" />
		<!-- Chat tail -->
		<path d="M172 415 L148 450 L218 415" fill="#FAFAFA" transform="translate(2, -1)" />
		<!-- Jester hat from user's path -->
		<g transform="translate(15, -85) scale(1.0)">
			<path d="M 236.939 140.419 C 230.689 142.031, 226.560 145.212, 224.086 150.323 C 221.810 155.024, 221.362 162.177, 223.061 166.685 C 224.349 170.101, 229.515 175.654, 233.200 177.585 C 236.422 179.273, 247.236 179.459, 250.316 177.880 C 257.755 174.065, 262.952 163.995, 261.521 156.166 C 259.349 144.284, 248.615 137.407, 236.939 140.419 M 248 187.215 C 245.525 187.680, 241.282 187.935, 238.571 187.781 L 233.643 187.500 230.852 196.838 C 225.248 215.586, 219.017 248.677, 219.005 259.750 C 219.002 262.087, 218.639 264, 218.197 264 C 217.755 264, 215.560 262.651, 213.319 261.003 C 207.081 256.416, 194.338 250.370, 186 248.043 C 163.771 241.839, 136.096 246.178, 109 260.115 C 98.821 265.352, 83.036 276.392, 82.217 278.848 C 81.611 280.666, 86.235 287.124, 87.731 286.550 C 91.303 285.179, 109.225 283.842, 116.654 284.393 C 136.094 285.833, 146.498 289.322, 156.145 297.635 C 167.406 307.340, 174.592 318.034, 179.575 332.500 C 181.090 336.900, 182.761 341.063, 183.288 341.750 C 184.481 343.308, 308.510 343.603, 309.469 342.050 C 309.792 341.527, 310.911 337.759, 311.955 333.675 C 314.282 324.578, 321.494 310.031, 326.623 304.089 C 334.676 294.761, 347.083 287.858, 360.799 285.075 C 363.714 284.484, 370.793 284, 376.530 284 C 386.901 284, 386.966 283.985, 387.607 281.429 C 387.962 280.014, 389.766 276.657, 391.615 273.969 L 394.978 269.081 390.731 266.159 C 374.206 254.790, 351.848 247.399, 327.840 245.369 C 310.194 243.878, 290.368 250.182, 274.783 262.239 L 271.067 265.115 270.565 262.808 C 270.289 261.538, 269.122 253.075, 267.972 244 C 265.683 225.926, 263.719 217.167, 258.625 202.303 C 252.969 185.800, 253.268 186.225, 248 187.215 M 406.637 270.465 C 398.993 273.190, 393.056 281.496, 393.032 289.500 C 393.012 296.013, 397.119 303.486, 402.645 306.990 C 406.502 309.436, 408.467 310, 413.131 310 C 416.287 310, 420.137 309.523, 421.685 308.940 C 425.732 307.417, 431.781 301.194, 433.100 297.198 C 438.776 279.999, 423.417 264.483, 406.637 270.465 M 50.842 278.021 C 35.372 286.193, 36.210 308.758, 52.232 315.452 C 66.472 321.402, 82.732 308.953, 80.682 293.668 C 79.897 287.811, 75.220 281.035, 70.093 278.328 C 64.485 275.366, 56.119 275.233, 50.842 278.021" stroke="none" fill="#FAFAFA" fill-rule="evenodd" />
		</g>
		<!-- Left eye - wink -->
		<path d="M200 320 Q218 303 236 320" stroke="#7C3AED" stroke-width="9" fill="none" stroke-linecap="round" />
		<!-- Right eye -->
		<circle cx="310" cy="313" r="18" fill="#7C3AED" />
		<!-- Smirk -->
		<path d="M228 363 Q268 390 318 365" stroke="#7C3AED" stroke-width="9" fill="none" stroke-linecap="round" />
	</g>
</svg>
